<?xml version="1.0" encoding="UTF-8" standalone="no"?>
<!-- Created with Inkscape (http://www.inkscape.org/) -->

<svg
   xmlns:dc="http://purl.org/dc/elements/1.1/"
   xmlns:cc="http://creativecommons.org/ns#"
   xmlns:rdf="http://www.w3.org/1999/02/22-rdf-syntax-ns#"
   xmlns:svg="http://www.w3.org/2000/svg"
   xmlns="http://www.w3.org/2000/svg"
   xmlns:sodipodi="http://sodipodi.sourceforge.net/DTD/sodipodi-0.dtd"
   xmlns:inkscape="http://www.inkscape.org/namespaces/inkscape"
   width="300"
   height="62"
   id="svg4013"
   version="1.1"
   inkscape:version="0.48.2 r9819"
   sodipodi:docname="logo4_2.png"
   inkscape:export-filename="/Users/Armando/NetBeansProjects/PhenumaWeb/web/resources/img/logo4_2.png"
   inkscape:export-xdpi="90"
   inkscape:export-ydpi="90">
  <sodipodi:namedview
     id="base"
     pagecolor="#ffffff"
     bordercolor="#666666"
     borderopacity="1.0"
     inkscape:pageopacity="0.0"
     inkscape:pageshadow="2"
     inkscape:zoom="5.2750166"
     inkscape:cx="128.36094"
     inkscape:cy="51.543377"
     inkscape:document-units="px"
     inkscape:current-layer="layer1"
     showgrid="false"
     height="59px"
     inkscape:window-width="1845"
     inkscape:window-height="1012"
     inkscape:window-x="0"
     inkscape:window-y="22"
     inkscape:window-maximized="0" />
  <defs
     id="defs4015">
    <pattern
       patternUnits="userSpaceOnUse"
       patternTransform="translate(12.920439,5.8619402)"
       height="47.305564"
       width="49.740603"
       id="Voronoi9266">
      <path
         id="path5163"
         d="M 30.355180,0.000000 38.859325,7.310963"
         style="stroke:#000000" />
      <path
         id="path5165"
         d="M 27.332504,3.906762 28.069303,0.000000"
         style="stroke:#000000" />
      <path
         id="path5167"
         d="M 6.460023,8.222537 8.444395,8.995124"
         style="stroke:#000000" />
      <path
         id="path5169"
         d="M 38.859325,7.310963 38.979684,12.174893"
         style="stroke:#000000" />
      <path
         id="path5171"
         d="M 8.444395,8.995124 11.693165,9.944087"
         style="stroke:#000000" />
      <path
         id="path5173"
         d="M 11.693165,9.944087 18.851692,0.000000"
         style="stroke:#000000" />
      <path
         id="path5175"
         d="M 11.693165,9.944087 15.794307,13.629989"
         style="stroke:#000000" />
      <path
         id="path5177"
         d="M 15.794307,13.629989 27.332504,3.906762"
         style="stroke:#000000" />
      <path
         id="path5179"
         d="M 37.620880,15.652985 38.979684,12.174893"
         style="stroke:#000000" />
      <path
         id="path5181"
         d="M 35.771513,16.653650 37.620880,15.652985"
         style="stroke:#000000" />
      <path
         id="path5183"
         d="M 8.278849,20.231433 8.444395,8.995124"
         style="stroke:#000000" />
      <path
         id="path5185"
         d="M 6.220822,20.417191 8.278849,20.231433"
         style="stroke:#000000" />
      <path
         id="path5187"
         d="M 27.332504,3.906762 30.406751,16.489506"
         style="stroke:#000000" />
      <path
         id="path5189"
         d="M 30.406751,16.489506 30.492929,16.536357"
         style="stroke:#000000" />
      <path
         id="path5191"
         d="M 30.492929,16.536357 35.771513,16.653650"
         style="stroke:#000000" />
      <path
         id="path5193"
         d="M 15.794307,13.629989 16.783238,17.370782"
         style="stroke:#000000" />
      <path
         id="path5195"
         d="M 16.783238,17.370782 22.645291,19.398081"
         style="stroke:#000000" />
      <path
         id="path5197"
         d="M 22.645291,19.398081 30.406751,16.489506"
         style="stroke:#000000" />
      <path
         id="path5199"
         d="M 22.645291,19.398081 22.850103,21.499691"
         style="stroke:#000000" />
      <path
         id="path5201"
         d="M 0.000000,11.895534 6.460023,8.222537"
         style="stroke:#000000" />
      <path
         id="path5203"
         d="M 0.000000,16.939292 6.220822,20.417191"
         style="stroke:#000000" />
      <path
         id="path5205"
         d="M 8.278849,20.231433 13.953539,20.697835"
         style="stroke:#000000" />
      <path
         id="path5207"
         d="M 13.953539,20.697835 16.783238,17.370782"
         style="stroke:#000000" />
      <path
         id="path5209"
         d="M 19.262427,29.728611 22.850103,21.499691"
         style="stroke:#000000" />
      <path
         id="path5211"
         d="M 19.262427,29.728611 28.126712,30.276002"
         style="stroke:#000000" />
      <path
         id="path5213"
         d="M 22.850103,21.499691 28.126712,30.276002"
         style="stroke:#000000" />
      <path
         id="path5215"
         d="M 13.111226,30.812902 13.953539,20.697835"
         style="stroke:#000000" />
      <path
         id="path5217"
         d="M 13.111226,30.812902 15.144010,31.580116"
         style="stroke:#000000" />
      <path
         id="path5219"
         d="M 15.144010,31.580116 19.262427,29.728611"
         style="stroke:#000000" />
      <path
         id="path5221"
         d="M 28.126712,30.276002 31.825285,32.211452"
         style="stroke:#000000" />
      <path
         id="path5223"
         d="M 30.492929,16.536357 31.825285,32.211452"
         style="stroke:#000000" />
      <path
         id="path5225"
         d="M 5.379992,33.159402 6.220822,20.417191"
         style="stroke:#000000" />
      <path
         id="path5227"
         d="M 5.379992,33.159402 5.956427,33.293456"
         style="stroke:#000000" />
      <path
         id="path5229"
         d="M 5.956427,33.293456 13.111226,30.812902"
         style="stroke:#000000" />
      <path
         id="path5231"
         d="M 31.825285,32.211452 32.619666,33.210263"
         style="stroke:#000000" />
      <path
         id="path5233"
         d="M 32.619666,33.210263 35.979913,33.753567"
         style="stroke:#000000" />
      <path
         id="path5235"
         d="M 35.979913,33.753567 42.405125,33.145948"
         style="stroke:#000000" />
      <path
         id="path5237"
         d="M 35.771513,16.653650 42.405125,33.145948"
         style="stroke:#000000" />
      <path
         id="path5239"
         d="M 0.000000,33.278708 5.379992,33.159402"
         style="stroke:#000000" />
      <path
         id="path5241"
         d="M 15.144010,31.580116 22.286308,42.564191"
         style="stroke:#000000" />
      <path
         id="path5243"
         d="M 22.286308,42.564191 32.619666,33.210263"
         style="stroke:#000000" />
      <path
         id="path5245"
         d="M 0.000000,42.550941 5.770589,47.305564"
         style="stroke:#000000" />
      <path
         id="path5247"
         d="M 5.956427,33.293456 11.231744,47.305564"
         style="stroke:#000000" />
      <path
         id="path5249"
         d="M 21.212768,47.305564 22.286308,42.564191"
         style="stroke:#000000" />
      <path
         id="path5251"
         d="M 33.566644,47.305564 35.979913,33.753567"
         style="stroke:#000000" />
      <path
         id="path5253"
         d="M 42.405125,33.145948 49.740603,34.529923"
         style="stroke:#000000" />
      <path
         id="path5255"
         d="M 37.620880,15.652985 49.740603,19.102084"
         style="stroke:#000000" />
      <path
         id="path5257"
         d="M 38.979684,12.174893 49.740603,9.936592"
         style="stroke:#000000" />
      <path
         id="path5259"
         d="M 38.859325,7.310963 49.740603,4.022926"
         style="stroke:#000000" />
      <path
         id="path5261"
         d="M 6.460023,8.222537 6.471606,0.000000"
         style="stroke:#000000" />
    </pattern>
    <filter
       id="filter20107"
       inkscape:label="Inner Shadow"
       inkscape:menu="Shadows and Glows"
       inkscape:menu-tooltip="Adds a colorizable drop shadow inside"
       color-interpolation-filters="sRGB">
      <feGaussianBlur
         id="feGaussianBlur20109"
         stdDeviation="4"
         result="result8" />
      <feOffset
         id="feOffset20111"
         dx="4"
         dy="4"
         result="result11" />
      <feComposite
         id="feComposite20113"
         in2="result11"
         result="result6"
         in="SourceGraphic"
         operator="in" />
      <feFlood
         id="feFlood20115"
         result="result10"
         in="result6"
         flood-opacity="1"
         flood-color="rgb(0,0,0)" />
      <feBlend
         id="feBlend20117"
         in2="result10"
         mode="normal"
         in="result6"
         result="result12" />
      <feComposite
         id="feComposite20119"
         in2="SourceGraphic"
         result="result2"
         operator="in" />
    </filter>
    <filter
       id="filter20121"
       inkscape:label="Inner Shadow"
       inkscape:menu="Shadows and Glows"
       inkscape:menu-tooltip="Adds a colorizable drop shadow inside"
       color-interpolation-filters="sRGB">
      <feGaussianBlur
         id="feGaussianBlur20123"
         stdDeviation="4"
         result="result8" />
      <feOffset
         id="feOffset20125"
         dx="4"
         dy="4"
         result="result11" />
      <feComposite
         id="feComposite20127"
         in2="result11"
         result="result6"
         in="SourceGraphic"
         operator="in" />
      <feFlood
         id="feFlood20129"
         result="result10"
         in="result6"
         flood-opacity="1"
         flood-color="rgb(0,0,0)" />
      <feBlend
         id="feBlend20131"
         in2="result10"
         mode="normal"
         in="result6"
         result="result12" />
      <feComposite
         id="feComposite20133"
         in2="SourceGraphic"
         result="result2"
         operator="in" />
    </filter>
  </defs>
  <metadata
     id="metadata4018">
    <rdf:RDF>
      <cc:Work
         rdf:about="">
        <dc:format>image/svg+xml</dc:format>
        <dc:type
           rdf:resource="http://purl.org/dc/dcmitype/StillImage" />
        <dc:title></dc:title>
      </cc:Work>
    </rdf:RDF>
  </metadata>
  <g
     transform="translate(0,-990.36218)"
     id="layer1"
     inkscape:groupmode="layer"
     inkscape:label="Capa 1">
    <text
       sodipodi:linespacing="125%"
       id="text4021"
       y="1029.1479"
       x="65.714287"
       style="font-size:40px;font-style:normal;font-weight:normal;line-height:125%;letter-spacing:0px;word-spacing:0px;fill:#e6e6e6;fill-opacity:1;stroke:none;font-family:Sans"
       xml:space="preserve"><tspan
         style="font-style:normal;font-variant:normal;font-weight:normal;font-stretch:normal;fill:#e6e6e6;font-family:Saab;-inkscape-font-specification:Saab"
         y="1029.1479"
         x="65.714287"
         id="tspan4023"
         sodipodi:role="line"><tspan
           style="fill:#000000"
           id="tspan3065">Phen</tspan><tspan
           id="tspan4702"
           style="fill:#d87601;fill-opacity:1">UMA</tspan></tspan></text>
    <text
       transform="translate(0,990.36218)"
       sodipodi:linespacing="125%"
       id="text4704"
       y="78.25"
       x="209.64285"
       style="font-size:40px;font-style:normal;font-weight:normal;line-height:125%;letter-spacing:0px;word-spacing:0px;fill:#000000;fill-opacity:1;stroke:none;font-family:Sans"
       xml:space="preserve"><tspan
         y="78.25"
         x="209.64285"
         id="tspan4706"
         sodipodi:role="line" /></text>
    <g
       style="opacity:0.34051795;fill:#7c8979;fill-opacity:1;stroke:#7c8979;stroke-opacity:1"
       transform="matrix(-0.82938478,-0.94662372,1.0367373,-0.04070158,-995.06874,1086.6163)"
       id="g4688">
      <path
         transform="translate(0,990.36218)"
         inkscape:connector-curvature="0"
         id="path4690"
         d="m 20.357143,19.5 10,12.142857 -0.714286,10 L 30.357143,31.285714 40,29.142857 39.285714,29.857143"
         style="fill:none;stroke:#7c8979;stroke-width:0.60000002;stroke-linecap:butt;stroke-linejoin:miter;stroke-miterlimit:4;stroke-opacity:1;stroke-dasharray:none;stroke-dashoffset:0" />
      <path
         transform="translate(-3.9285715,982.14789)"
         d="m 28.571428,20.571428 c 0,4.733869 -3.837559,8.571429 -8.571428,8.571429 -4.733869,0 -8.571428,-3.83756 -8.571428,-8.571429 C 11.428572,15.837559 15.266131,12 20,12 c 4.733869,0 8.571428,3.837559 8.571428,8.571428 z"
         sodipodi:ry="8.5714283"
         sodipodi:rx="8.5714283"
         sodipodi:cy="20.571428"
         sodipodi:cx="20"
         id="path4692"
         style="opacity:0.98999999;fill:#7c8979;fill-opacity:1;stroke:#7c8979;stroke-opacity:1"
         sodipodi:type="arc" />
      <path
         transform="matrix(0.49999998,0,0,0.49999998,18.928571,1024.3978)"
         d="m 28.571428,20.571428 c 0,4.733869 -3.837559,8.571429 -8.571428,8.571429 -4.733869,0 -8.571428,-3.83756 -8.571428,-8.571429 C 11.428572,15.837559 15.266131,12 20,12 c 4.733869,0 8.571428,3.837559 8.571428,8.571428 z"
         sodipodi:ry="8.5714283"
         sodipodi:rx="8.5714283"
         sodipodi:cy="20.571428"
         sodipodi:cx="20"
         id="path4694"
         style="opacity:0.98999999;fill:#7c8979;fill-opacity:1;stroke:#7c8979;stroke-opacity:1"
         sodipodi:type="arc" />
      <path
         sodipodi:type="arc"
         style="opacity:0.98999999;fill:#7c8979;fill-opacity:1;stroke:#7c8979;stroke-opacity:1"
         id="path4696"
         sodipodi:cx="20"
         sodipodi:cy="20.571428"
         sodipodi:rx="8.5714283"
         sodipodi:ry="8.5714283"
         d="m 28.571428,20.571428 c 0,4.733869 -3.837559,8.571429 -8.571428,8.571429 -4.733869,0 -8.571428,-3.83756 -8.571428,-8.571429 C 11.428572,15.837559 15.266131,12 20,12 c 4.733869,0 8.571428,3.837559 8.571428,8.571428 z"
         transform="matrix(0.72916666,0,0,0.72916666,30.773809,1003.4336)" />
      <path
         sodipodi:type="arc"
         style="opacity:0.98999999;fill:#7c8979;fill-opacity:1;stroke:#7c8979;stroke-opacity:1"
         id="path4698"
         sodipodi:cx="20"
         sodipodi:cy="20.571428"
         sodipodi:rx="8.5714283"
         sodipodi:ry="8.5714283"
         d="m 28.571428,20.571428 c 0,4.733869 -3.837559,8.571429 -8.571428,8.571429 -4.733869,0 -8.571428,-3.83756 -8.571428,-8.571429 C 11.428572,15.837559 15.266131,12 20,12 c 4.733869,0 8.571428,3.837559 8.571428,8.571428 z"
         transform="matrix(0.35416664,0,0,0.35416664,23.273809,1013.8264)" />
    </g>
    <g
       style="fill:url(#Voronoi9266)"
       transform="matrix(-0.84339187,-0.96469573,1.0542463,-0.04147861,-1012.2529,1087.1615)"
       id="g4681">
      <path
         style="fill:none;stroke:#1c1219;stroke-width:0.98959202000000002;stroke-linecap:butt;stroke-linejoin:miter;stroke-miterlimit:4;stroke-opacity:1;stroke-dasharray:none;stroke-dashoffset:0"
         d="m 20.357143,19.5 10,12.142857 -0.714286,10 L 30.357143,31.285714 40,29.142857 39.285714,29.857143"
         id="path4076"
         inkscape:connector-curvature="0"
         transform="translate(0,990.36218)" />
      <path
         sodipodi:type="arc"
         style="opacity:0.98999999000000005;fill:#d87601;fill-opacity:1;stroke:none"
         id="path4057"
         sodipodi:cx="20"
         sodipodi:cy="20.571428"
         sodipodi:rx="8.5714283"
         sodipodi:ry="8.5714283"
         d="m 28.571428,20.571428 c 0,4.733869 -3.837559,8.571429 -8.571428,8.571429 -4.733869,0 -8.571428,-3.83756 -8.571428,-8.571429 C 11.428572,15.837559 15.266131,12 20,12 c 4.733869,0 8.571428,3.837559 8.571428,8.571428 z"
         transform="translate(-3.9285715,982.14789)" />
      <path
         sodipodi:type="arc"
         style="opacity:0.98999999000000005;fill:#d87601;fill-opacity:1;stroke:none"
         id="path4072"
         sodipodi:cx="20"
         sodipodi:cy="20.571428"
         sodipodi:rx="8.5714283"
         sodipodi:ry="8.5714283"
         d="m 28.571428,20.571428 c 0,4.733869 -3.837559,8.571429 -8.571428,8.571429 -4.733869,0 -8.571428,-3.83756 -8.571428,-8.571429 C 11.428572,15.837559 15.266131,12 20,12 c 4.733869,0 8.571428,3.837559 8.571428,8.571428 z"
         transform="matrix(0.49999998,0,0,0.49999998,18.928571,1024.3978)" />
      <path
         transform="matrix(0.72916666,0,0,0.72916666,30.773809,1003.4336)"
         d="m 28.571428,20.571428 c 0,4.733869 -3.837559,8.571429 -8.571428,8.571429 -4.733869,0 -8.571428,-3.83756 -8.571428,-8.571429 C 11.428572,15.837559 15.266131,12 20,12 c 4.733869,0 8.571428,3.837559 8.571428,8.571428 z"
         sodipodi:ry="8.5714283"
         sodipodi:rx="8.5714283"
         sodipodi:cy="20.571428"
         sodipodi:cx="20"
         id="path4074"
         style="opacity:0.98999999000000005;fill:#d87601;fill-opacity:1;stroke:none"
         sodipodi:type="arc" />
      <path
         transform="matrix(0.35416664,0,0,0.35416664,23.273809,1013.8264)"
         d="m 28.571428,20.571428 c 0,4.733869 -3.837559,8.571429 -8.571428,8.571429 -4.733869,0 -8.571428,-3.83756 -8.571428,-8.571429 C 11.428572,15.837559 15.266131,12 20,12 c 4.733869,0 8.571428,3.837559 8.571428,8.571428 z"
         sodipodi:ry="8.5714283"
         sodipodi:rx="8.5714283"
         sodipodi:cy="20.571428"
         sodipodi:cx="20"
         id="path4078"
         style="opacity:0.98999999000000005;fill:#d87601;fill-opacity:1;stroke:none"
         sodipodi:type="arc" />
    </g>
  </g>
</svg>
